<?xml version="1.0" encoding="UTF-8"?>
<!DOCTYPE svg PUBLIC "-//W3C//DTD SVG 1.1//EN" "http://www.w3.org/Graphics/SVG/1.1/DTD/svg11.dtd">
<!-- Creator: CorelDRAW 2020 (64 Bit) -->
<?xml-stylesheet href="Focus.css" type="text/css"?>
<svg xmlns="http://www.w3.org/2000/svg" xml:space="preserve" width="20.9973cm" height="29.7011cm" version="1.1" style="shape-rendering:geometricPrecision; text-rendering:geometricPrecision; image-rendering:optimizeQuality; fill-rule:evenodd; clip-rule:evenodd"
viewBox="0 0 20997.33 29696.23"
 xmlns:xlink="http://www.w3.org/1999/xlink"
 xmlns:xodm="http://www.corel.com/coreldraw/odm/2003"
 enable-background="new 0 0 654 238">
 <g id="Camada_x0020_1">
  <metadata id="CorelCorpID_0Corel-Layer"/>
  <g id="_2019076421872">
   <path class="fil0" d="M15835.3 14226.42c-42.32,-753.43 448.68,-1269.84 1185.19,-1278.31 304.76,0 609.52,0 905.81,8.47 601.05,8.47 1185.18,491.01 1125.93,1117.46 -245.51,0 -482.54,0 -736.51,0 -50.79,-321.69 -279.36,-372.48 -567.2,-364.02 -245.5,8.47 -482.54,0 -728.04,8.47 -253.97,0 -414.82,143.91 -423.29,364.02 0,228.57 160.85,380.95 423.29,380.95 296.29,0 592.58,-8.47 888.89,0 914.28,16.93 1456.08,948.14 998.93,1718.51 -220.1,380.95 -575.66,558.73 -1007.4,567.2 -364.02,0 -719.58,0 -1083.59,-25.4 -541.8,-33.87 -1007.41,-584.13 -973.55,-1117.46 245.5,0 491.01,0 736.51,0 101.59,313.22 194.71,372.48 533.33,372.48 262.44,0 524.86,8.47 787.3,0 194.71,0 338.63,-101.59 380.95,-245.5 50.79,-160.85 0,-355.55 -135.45,-431.75 -84.65,-42.33 -186.24,-67.73 -279.36,-67.73 -321.69,-8.46 -643.38,-8.46 -965.08,-16.93 -465.6,0 -982.01,-389.42 -1066.66,-990.47z"/>
   <path class="fil0" d="M3526.33 14463.46c296.29,0 575.66,0 863.49,0 0,262.43 0,507.94 0,761.9 -575.66,0 -1134.39,0 -1710.05,0 0,516.39 0,1015.87 0,1523.81 -270.9,0 -516.39,0 -770.36,0 0,-1269.84 0,-2531.22 0,-3801.06 1075.12,0 2150.26,0 3233.85,0 0,245.51 0,491.01 0,753.44 -821.16,0 -1633.85,0 -2463.49,0 0,262.43 0,499.47 0,761.9 279.36,0 550.27,0 846.56,0z"/>
   <path class="fil1" d="M12796.15 15183.03c-16.93,-744.97 -8.47,-1489.94 -8.47,-2234.92 -253.97,0 -499.47,0 -778.83,0 0,169.32 0,338.63 0,516.4 0,533.33 8.47,1921.69 8.47,1676.19 0,685.71 423.28,1261.37 1075.12,1515.34 330.16,126.98 770.37,118.52 1109,0 643.38,-253.97 1058.2,-829.62 1066.66,-1515.34 8.46,-558.73 0,-1125.93 0,-1676.19 0,-177.78 0,-347.09 0,-516.4 -262.44,0 -507.94,0 -770.37,0 0,744.98 8.47,1489.95 -8.47,2234.92 -16.93,1049.74 -1667.72,1049.74 -1693.11,0z"/>
   <path class="fil1" d="M6523.15 15995.73c634.92,0 1151.32,-516.39 1151.32,-1151.31 0,-634.92 -516.4,-1142.85 -1151.32,-1142.85 -634.92,0 -1151.32,507.94 -1151.32,1142.85 0,634.92 516.4,1151.31 1151.32,1151.31z"/>
   <path class="fil1" d="M6480.83 12948.12l3792.58 0c414.82,0 829.63,203.17 1176.72,533.33l-533.33 533.33c-203.17,-194.71 -482.54,-313.22 -787.3,-313.22 -634.92,0 -1151.32,516.39 -1151.32,1159.78 0,634.92 516.4,1151.32 1151.32,1151.32 321.69,0 609.52,-135.45 812.7,-338.63l533.33 507.94c-347.09,347.09 -821.17,567.2 -1354.5,567.2 -2632.8,0 -1168.25,-3132.27 -3640.2,-3801.06z"/>
  </g>
 </g>
</svg>
